<?xml version="1.0" encoding="UTF-8" standalone="no"?>
<!DOCTYPE svg PUBLIC "-//W3C//DTD SVG 1.1//EN"
 "http://www.w3.org/Graphics/SVG/1.1/DTD/svg11.dtd">
<!-- Generated by graphviz version 2.30.1 (20130221.2233)
 -->
<!-- Title: G Pages: 1 -->
<svg width="122pt" height="151pt"
 viewBox="0.00 0.00 122.00 151.00" xmlns="http://www.w3.org/2000/svg" xmlns:xlink="http://www.w3.org/1999/xlink">
<g id="graph0" class="graph" transform="scale(1 1) rotate(0) translate(4 147)">
<title>G</title>
<polygon fill="white" stroke="white" points="-4,5 -4,-147 119,-147 119,5 -4,5"/>
<g id="clust1" class="cluster"><title>cluster_Global</title>
<path fill="none" stroke="gray" d="M20,-8C20,-8 94,-8 94,-8 100,-8 106,-14 106,-20 106,-20 106,-123 106,-123 106,-129 100,-135 94,-135 94,-135 20,-135 20,-135 14,-135 8,-129 8,-123 8,-123 8,-20 8,-20 8,-14 14,-8 20,-8"/>
<text text-anchor="middle" x="57" y="-120" font-family="Times,serif" font-size="11.00" fill="gray">\</text>
</g>
<!-- \\Controller -->
<g id="node1" class="node"><title>\\Controller</title>
<polygon fill="none" stroke="black" points="98.0107,-106 15.9893,-106 15.9893,-70 98.0107,-70 98.0107,-106"/>
<text text-anchor="middle" x="57" y="-83.6" font-family="Courier,monospace" font-size="11.00">Controller</text>
</g>
<!-- \\Model -->
<g id="node2" class="node"><title>\\Model</title>
<polygon fill="none" stroke="black" points="84,-52 30,-52 30,-16 84,-16 84,-52"/>
<text text-anchor="middle" x="57" y="-29.6" font-family="Courier,monospace" font-size="11.00">Model</text>
</g>
</g>
</svg>
